<svg xmlns="http://www.w3.org/2000/svg">
  <symbol id="mickey" viewBox="0 0 249 200">
    <title>mickey</title>
    <path d="M249,124.32c0-8.85-4.29-16-9.58-16s-9.57,7.18-9.57,16a25.93,25.93,0,0,0,.21,3.34H207.43c-5-34.87-35.65-61.72-72.75-61.72a75.19,75.19,0,0,0-13.93,1.31,35.14,35.14,0,0,0,8.06-22.41,35.68,35.68,0,1,0-38,35.32,72.2,72.2,0,0,0-24,30.15A35.44,35.44,0,1,0,62.49,151c6.4,33.26,36.28,58.44,72.19,58.44,32,0,59.22-20,69.3-47.88a26.87,26.87,0,0,0,8.87,1.51c13.22,0,24.61-9.73,29-23.24C246,138,249,131.78,249,124.32Z" transform="translate(0 -9.43)"/>
  </symbol>

  <symbol id="minnie" viewBox="0 0 235.14 196.39">
    <title>minnie</title>
    <path d="M234,133c-2.21,0-4,4-4,9a18.18,18.18,0,0,0,.12,2.12H209.38c-4.61-34.4-35.41-61-72.75-61a76.42,76.42,0,0,0-19.88,2.62,34.27,34.27,0,1,0-47.95-.43A17.23,17.23,0,0,0,55.59,89.9L54,91.45,40.46,70.82c2.75,1.33,5.33,1.45,6.59.05,1.85-2.05.19-6.57-3.7-10.08-.22-.2-.45-.39-.68-.58a16.24,16.24,0,0,0,2.47-2.91c2.94-4.35,3.47-9.13,1.18-10.67s-6.32.62-9.25,4.77c0-.32-.11-.65-.19-1-1.12-5.13-4.22-8.8-6.92-8.21s-4,5.23-2.84,10.35c.11.54.26,1,.41,1.55a16.66,16.66,0,0,0-2-.12c-5.25,0-9.5,2.24-9.5,5s4.25,5,9.5,5h.35a17.11,17.11,0,0,0-.73,2.42c-1.15,5.12.11,7.76,2.8,8.36s5.81-1.06,7-6.18q.1-.47.18-.93c2.6,9.23,9.53,20.61,16,26.8L46.4,99.09a8.11,8.11,0,0,0-1.86,9.54,34.39,34.39,0,1,0,19.52,54.8C69.32,197.14,99.8,223,136.63,223c34.29,0,63.08-22.42,71.12-52.72a20.91,20.91,0,0,0,5.43.72c11.66,0,21.47-9.67,23.45-22.23A15.48,15.48,0,0,0,238,142C238,137,236.21,133,234,133Z" transform="translate(-2.86 -26.61)"/>
  </symbol>

  <symbol id="pikachu" viewBox="0 0 200 240">
    <title>pikachu</title>
    <path d="M197.55,127.69l43.33-25.83L223.7,73.43l-53.5,31.89-5.9,2.61.32.71-.92.55,4.52,7.47,6.58,14.64-13.59,6v0l-19.74,8.56,13.63,31-24.36,10.91V155a23,23,0,0,0-3.52-12.21c14.15-7,23.4-18.58,23.4-31.69,0-8.88-4.25-17.06-11.39-23.59a99.78,99.78,0,0,0,19.16-6.15c19.75-8.48,38.08-28.1,30.71-27S166.66,48.5,146.91,57c-13.14,5.64-23.23,12.88-27.64,19.1a74.19,74.19,0,0,0-23.52-3.73,77.62,77.62,0,0,0-8.84.51c3-7.1,4.86-17.78,4.86-29.73,0-21.37-10.85-45.87-12.72-38.69S61.39,31.26,64.66,52.38c1.83,11.85,3.54,19.68,6,24.27C53,83.07,40.88,96.06,40.88,111.05c0,12.74,8.73,24,22.19,31.08A23,23,0,0,0,59.17,155v6.35a219.56,219.56,0,0,0-7,42.12,30.59,30.59,0,0,0-.08,3.71,38.22,38.22,0,0,0-.42,4.78,7.92,7.92,0,0,0,.53,3.58A5.63,5.63,0,0,0,56,218.36a6,6,0,0,0,.38.47c3.31,3.4,8.91,2.15,13.59,3.07a33.94,33.94,0,0,0-4.75,2.2c-7.65,4.28-12.28,10.52-10.34,13.94s9.71,2.72,17.36-1.56c6.2-3.46,10.42-8.22,10.77-11.72h24.22c.26,0,.52,0,.78,0,.15,3.5,3.47,8.53,8.74,12.71,6.87,5.43,14.43,7.35,16.9,4.28s-1.11-10-8-15.4a31.29,31.29,0,0,0-7.28-4.37,23.43,23.43,0,0,0,12-16.69l33.26-14.9,17.54-7.6-13-29.5,26-11.54-.14-.3,8-3.54Zm-140,0a7.11,7.11,0,1,1,7.16-7.11A7.14,7.14,0,0,1,57.58,127.64ZM59.17,190V197Q59,193.5,59.17,190ZM56,196.17c.12,2.51.33,5,.68,7.52a10.19,10.19,0,0,0,.25,1.14c-.12.23-.23.46-.34.69A32.87,32.87,0,0,1,56,196.17Zm14.2,25.64-.07-.71.75.46ZM132.32,115a7.11,7.11,0,1,1-7.15,7.11A7.14,7.14,0,0,1,132.32,115Z" transform="translate(-40.88 -3.18)"/>
  </symbol>

  <symbol id="spongebob" viewBox="0 0 200.85 201">
    <title>spongebob</title>
    <path d="M27,27h0Z" transform="translate(-17.81 -27)"/><path d="M218.67,91.48A7.13,7.13,0,1,0,209,98.22V118H197v-2.19a2.81,2.81,0,0,0-2.81-2.81h-7.38a2.39,2.39,0,0,0-.66.09,7.7,7.7,0,0,0-1.15-.37v-.32a7.53,7.53,0,0,0,0-14.68V97.4a7.53,7.53,0,0,0,0-14.68V82.4a7.53,7.53,0,0,0,0-14.68v-.11h.18a7.56,7.56,0,1,0,0-15.12,7.76,7.76,0,0,0-4.43,1.39,7.69,7.69,0,0,0-15.07-.44,7.71,7.71,0,0,0-14.32-1.86,7.71,7.71,0,0,0-13.58,2.47,7.69,7.69,0,0,0-15.1-.61,7.7,7.7,0,0,0-15,0,7.7,7.7,0,0,0-15.1.56c-.88-3.44-3.86-6.51-7.4-6.51S78.66,50.57,77.77,54a7.7,7.7,0,0,0-14.09-3,7.7,7.7,0,0,0-6.5-3.55A7.55,7.55,0,0,0,55,62.31v.2a7.55,7.55,0,0,0-.75,15.05,7.54,7.54,0,0,0,0,15,7.54,7.54,0,0,0,0,15A7.63,7.63,0,0,0,47.58,114H41.81A2.81,2.81,0,0,0,39,116.81V118H22v25.5a7.12,7.12,0,1,0,5-.34V123H39v6.19A2.81,2.81,0,0,0,41.81,132h5.95a7.62,7.62,0,0,0,4.52,5.06A7.54,7.54,0,0,0,55,151.61V185H89v31.07A32.15,32.15,0,0,0,80.5,215a35,35,0,0,0-6.35.57A5.5,5.5,0,1,0,65,221.69c.24,3.5,7.07,6.31,15.48,6.31,8.56,0,15.5-2.91,15.5-6.5a2.84,2.84,0,0,0-.06-.5H96V185h45v36h.06a2.84,2.84,0,0,0-.06.5c0,3.59,6.94,6.5,15.5,6.5a28.79,28.79,0,0,0,11.19-2,5.5,5.5,0,0,0-.19-11,5.41,5.41,0,0,0-3.05.93,32.73,32.73,0,0,0-7.95-.93,32.15,32.15,0,0,0-8.5,1.07V185h37V156.4a7.52,7.52,0,0,0,1.07-14.34,7.56,7.56,0,0,0,4.79-7,7.42,7.42,0,0,0-1.21-4.06h4.54a2.81,2.81,0,0,0,2.81-2.81V123h17V98.25A7.21,7.21,0,0,0,218.67,91.48ZM52.45,123l-.45.18V123Z" transform="translate(-17.81 -27)"/>
  </symbol>

  <symbol id="marge" viewBox="0 0 123.96 208.96">
    <title>marge</title>
    <path d="M178,183.5c0-2.57-5.93-4.83-15-6.18a8.09,8.09,0,0,0,6.78-8,7.83,7.83,0,0,0-.34-2.29,8.57,8.57,0,0,0,3.74-6.49l-4.08,5.54a8.41,8.41,0,0,0-1.16-1.9,5.85,5.85,0,0,0,1.05-1.65,5.7,5.7,0,0,0,.62-3.67l-2.93,4.1a8.09,8.09,0,0,0-4.29-1.69,8.07,8.07,0,0,0-.86-12.1,8.1,8.1,0,0,0,1.4-9.57,8.08,8.08,0,0,0-1-13.71,8.09,8.09,0,0,0-4.87-12.51,8.08,8.08,0,0,0-2.54-13.27,8.1,8.1,0,0,0-2.8-11.63,8.07,8.07,0,0,0-4.82-12.42A8.08,8.08,0,0,0,145.8,61a8,8,0,0,0,1.34-4.45,8.08,8.08,0,0,0-6-7.81.31.31,0,0,0,0-.1A8.08,8.08,0,0,0,133,40.56a8,8,0,0,0-3.92,1A8.08,8.08,0,0,0,115,43a8.07,8.07,0,0,0-13,2.55,8.08,8.08,0,0,0-13.53,2.37,8.08,8.08,0,0,0-12.36,2.92,8.07,8.07,0,0,0-12.6,5,8.08,8.08,0,0,0-5.93,14.62,7.78,7.78,0,0,0,1.91,1,8.08,8.08,0,0,0-.7,13,8.09,8.09,0,0,0,1.61,11.84,8,8,0,0,0,.85,10.34,8.08,8.08,0,0,0,2.72,12.11,8.08,8.08,0,0,0,2.2,12.46,8,8,0,0,0,1.55,10,8.07,8.07,0,0,0,1.9,13.94,7.92,7.92,0,0,0-.7,3.27,8.08,8.08,0,0,0,5.24,7.56,8.07,8.07,0,0,0,2,13,8.08,8.08,0,1,0,12.07,10.73,12,12,0,0,0,10.93,3.19l2.92-.63V204h-1a3,3,0,0,0-3,3,3,3,0,0,0,.84,2.07A3.5,3.5,0,0,0,99.5,216h.27A40.77,40.77,0,0,0,85,246.91l45,.09h45c0-12.78-6.25-24.3-16-32a3.5,3.5,0,0,0-2.47-6h-1.28a3,3,0,0,0,.78-2,3,3,0,0,0-3-3h-2V190.82C166.45,190.08,178,187.08,178,183.5Z" transform="translate(-54.04 -38.04)"/>
  </symbol>
</svg>
