<svg id="Layer_1" data-name="Layer 1" xmlns="http://www.w3.org/2000/svg" viewBox="0 0 123.96 208.96"><title>marge</title><path d="M178,183.5c0-2.57-5.93-4.83-15-6.18a8.09,8.09,0,0,0,6.78-8,7.83,7.83,0,0,0-.34-2.29,8.57,8.57,0,0,0,3.74-6.49l-4.08,5.54a8.41,8.41,0,0,0-1.16-1.9,5.85,5.85,0,0,0,1.05-1.65,5.7,5.7,0,0,0,.62-3.67l-2.93,4.1a8.09,8.09,0,0,0-4.29-1.69,8.07,8.07,0,0,0-.86-12.1,8.1,8.1,0,0,0,1.4-9.57,8.08,8.08,0,0,0-1-13.71,8.09,8.09,0,0,0-4.87-12.51,8.08,8.08,0,0,0-2.54-13.27,8.1,8.1,0,0,0-2.8-11.63,8.07,8.07,0,0,0-4.82-12.42A8.08,8.08,0,0,0,145.8,61a8,8,0,0,0,1.34-4.45,8.08,8.08,0,0,0-6-7.81.31.31,0,0,0,0-.1A8.08,8.08,0,0,0,133,40.56a8,8,0,0,0-3.92,1A8.08,8.08,0,0,0,115,43a8.07,8.07,0,0,0-13,2.55,8.08,8.08,0,0,0-13.53,2.37,8.08,8.08,0,0,0-12.36,2.92,8.07,8.07,0,0,0-12.6,5,8.08,8.08,0,0,0-5.93,14.62,7.78,7.78,0,0,0,1.91,1,8.08,8.08,0,0,0-.7,13,8.09,8.09,0,0,0,1.61,11.84,8,8,0,0,0,.85,10.34,8.08,8.08,0,0,0,2.72,12.11,8.08,8.08,0,0,0,2.2,12.46,8,8,0,0,0,1.55,10,8.07,8.07,0,0,0,1.9,13.94,7.92,7.92,0,0,0-.7,3.27,8.08,8.08,0,0,0,5.24,7.56,8.07,8.07,0,0,0,2,13,8.08,8.08,0,1,0,12.07,10.73,12,12,0,0,0,10.93,3.19l2.92-.63V204h-1a3,3,0,0,0-3,3,3,3,0,0,0,.84,2.07A3.5,3.5,0,0,0,99.5,216h.27A40.77,40.77,0,0,0,85,246.91l45,.09h45c0-12.78-6.25-24.3-16-32a3.5,3.5,0,0,0-2.47-6h-1.28a3,3,0,0,0,.78-2,3,3,0,0,0-3-3h-2V190.82C166.45,190.08,178,187.08,178,183.5Z" transform="translate(-54.04 -38.04)"/></svg>