<svg id="Layer_1" data-name="Layer 1" xmlns="http://www.w3.org/2000/svg" viewBox="0 0 249 200"><title>mickey</title><path d="M249,124.32c0-8.85-4.29-16-9.58-16s-9.57,7.18-9.57,16a25.93,25.93,0,0,0,.21,3.34H207.43c-5-34.87-35.65-61.72-72.75-61.72a75.19,75.19,0,0,0-13.93,1.31,35.14,35.14,0,0,0,8.06-22.41,35.68,35.68,0,1,0-38,35.32,72.2,72.2,0,0,0-24,30.15A35.44,35.44,0,1,0,62.49,151c6.4,33.26,36.28,58.44,72.19,58.44,32,0,59.22-20,69.3-47.88a26.87,26.87,0,0,0,8.87,1.51c13.22,0,24.61-9.73,29-23.24C246,138,249,131.78,249,124.32Z" transform="translate(0 -9.43)"/></svg>