<svg id="Layer_1" data-name="Layer 1" xmlns="http://www.w3.org/2000/svg" viewBox="0 0 235.14 196.39"><title>minnie</title><path d="M234,133c-2.21,0-4,4-4,9a18.18,18.18,0,0,0,.12,2.12H209.38c-4.61-34.4-35.41-61-72.75-61a76.42,76.42,0,0,0-19.88,2.62,34.27,34.27,0,1,0-47.95-.43A17.23,17.23,0,0,0,55.59,89.9L54,91.45,40.46,70.82c2.75,1.33,5.33,1.45,6.59.05,1.85-2.05.19-6.57-3.7-10.08-.22-.2-.45-.39-.68-.58a16.24,16.24,0,0,0,2.47-2.91c2.94-4.35,3.47-9.13,1.18-10.67s-6.32.62-9.25,4.77c0-.32-.11-.65-.19-1-1.12-5.13-4.22-8.8-6.92-8.21s-4,5.23-2.84,10.35c.11.54.26,1,.41,1.55a16.66,16.66,0,0,0-2-.12c-5.25,0-9.5,2.24-9.5,5s4.25,5,9.5,5h.35a17.11,17.11,0,0,0-.73,2.42c-1.15,5.12.11,7.76,2.8,8.36s5.81-1.06,7-6.18q.1-.47.18-.93c2.6,9.23,9.53,20.61,16,26.8L46.4,99.09a8.11,8.11,0,0,0-1.86,9.54,34.39,34.39,0,1,0,19.52,54.8C69.32,197.14,99.8,223,136.63,223c34.29,0,63.08-22.42,71.12-52.72a20.91,20.91,0,0,0,5.43.72c11.66,0,21.47-9.67,23.45-22.23A15.48,15.48,0,0,0,238,142C238,137,236.21,133,234,133Z" transform="translate(-2.86 -26.61)"/></svg>