<svg id="Layer_1" data-name="Layer 1" xmlns="http://www.w3.org/2000/svg" viewBox="0 0 200 240"><title>pikachu</title><path d="M197.55,127.69l43.33-25.83L223.7,73.43l-53.5,31.89-5.9,2.61.32.71-.92.55,4.52,7.47,6.58,14.64-13.59,6v0l-19.74,8.56,13.63,31-24.36,10.91V155a23,23,0,0,0-3.52-12.21c14.15-7,23.4-18.58,23.4-31.69,0-8.88-4.25-17.06-11.39-23.59a99.78,99.78,0,0,0,19.16-6.15c19.75-8.48,38.08-28.1,30.71-27S166.66,48.5,146.91,57c-13.14,5.64-23.23,12.88-27.64,19.1a74.19,74.19,0,0,0-23.52-3.73,77.62,77.62,0,0,0-8.84.51c3-7.1,4.86-17.78,4.86-29.73,0-21.37-10.85-45.87-12.72-38.69S61.39,31.26,64.66,52.38c1.83,11.85,3.54,19.68,6,24.27C53,83.07,40.88,96.06,40.88,111.05c0,12.74,8.73,24,22.19,31.08A23,23,0,0,0,59.17,155v6.35a219.56,219.56,0,0,0-7,42.12,30.59,30.59,0,0,0-.08,3.71,38.22,38.22,0,0,0-.42,4.78,7.92,7.92,0,0,0,.53,3.58A5.63,5.63,0,0,0,56,218.36a6,6,0,0,0,.38.47c3.31,3.4,8.91,2.15,13.59,3.07a33.94,33.94,0,0,0-4.75,2.2c-7.65,4.28-12.28,10.52-10.34,13.94s9.71,2.72,17.36-1.56c6.2-3.46,10.42-8.22,10.77-11.72h24.22c.26,0,.52,0,.78,0,.15,3.5,3.47,8.53,8.74,12.71,6.87,5.43,14.43,7.35,16.9,4.28s-1.11-10-8-15.4a31.29,31.29,0,0,0-7.28-4.37,23.43,23.43,0,0,0,12-16.69l33.26-14.9,17.54-7.6-13-29.5,26-11.54-.14-.3,8-3.54Zm-140,0a7.11,7.11,0,1,1,7.16-7.11A7.14,7.14,0,0,1,57.58,127.64ZM59.17,190V197Q59,193.5,59.17,190ZM56,196.17c.12,2.51.33,5,.68,7.52a10.19,10.19,0,0,0,.25,1.14c-.12.23-.23.46-.34.69A32.87,32.87,0,0,1,56,196.17Zm14.2,25.64-.07-.71.75.46ZM132.32,115a7.11,7.11,0,1,1-7.15,7.11A7.14,7.14,0,0,1,132.32,115Z" transform="translate(-40.88 -3.18)"/></svg>