<svg id="Layer_1" data-name="Layer 1" xmlns="http://www.w3.org/2000/svg" viewBox="0 0 200.85 201"><title>spongebob</title><path d="M27,27h0Z" transform="translate(-17.81 -27)"/><path d="M218.67,91.48A7.13,7.13,0,1,0,209,98.22V118H197v-2.19a2.81,2.81,0,0,0-2.81-2.81h-7.38a2.39,2.39,0,0,0-.66.09,7.7,7.7,0,0,0-1.15-.37v-.32a7.53,7.53,0,0,0,0-14.68V97.4a7.53,7.53,0,0,0,0-14.68V82.4a7.53,7.53,0,0,0,0-14.68v-.11h.18a7.56,7.56,0,1,0,0-15.12,7.76,7.76,0,0,0-4.43,1.39,7.69,7.69,0,0,0-15.07-.44,7.71,7.71,0,0,0-14.32-1.86,7.71,7.71,0,0,0-13.58,2.47,7.69,7.69,0,0,0-15.1-.61,7.7,7.7,0,0,0-15,0,7.7,7.7,0,0,0-15.1.56c-.88-3.44-3.86-6.51-7.4-6.51S78.66,50.57,77.77,54a7.7,7.7,0,0,0-14.09-3,7.7,7.7,0,0,0-6.5-3.55A7.55,7.55,0,0,0,55,62.31v.2a7.55,7.55,0,0,0-.75,15.05,7.54,7.54,0,0,0,0,15,7.54,7.54,0,0,0,0,15A7.63,7.63,0,0,0,47.58,114H41.81A2.81,2.81,0,0,0,39,116.81V118H22v25.5a7.12,7.12,0,1,0,5-.34V123H39v6.19A2.81,2.81,0,0,0,41.81,132h5.95a7.62,7.62,0,0,0,4.52,5.06A7.54,7.54,0,0,0,55,151.61V185H89v31.07A32.15,32.15,0,0,0,80.5,215a35,35,0,0,0-6.35.57A5.5,5.5,0,1,0,65,221.69c.24,3.5,7.07,6.31,15.48,6.31,8.56,0,15.5-2.91,15.5-6.5a2.84,2.84,0,0,0-.06-.5H96V185h45v36h.06a2.84,2.84,0,0,0-.06.5c0,3.59,6.94,6.5,15.5,6.5a28.79,28.79,0,0,0,11.19-2,5.5,5.5,0,0,0-.19-11,5.41,5.41,0,0,0-3.05.93,32.73,32.73,0,0,0-7.95-.93,32.15,32.15,0,0,0-8.5,1.07V185h37V156.4a7.52,7.52,0,0,0,1.07-14.34,7.56,7.56,0,0,0,4.79-7,7.42,7.42,0,0,0-1.21-4.06h4.54a2.81,2.81,0,0,0,2.81-2.81V123h17V98.25A7.21,7.21,0,0,0,218.67,91.48ZM52.45,123l-.45.18V123Z" transform="translate(-17.81 -27)"/></svg>