<svg id="Layer_1" data-name="Layer 1" xmlns="http://www.w3.org/2000/svg" viewBox="0 0 225.01 184.39">
  <title>Wonder-woman</title>
  <path d="M14.5,200.5" transform="translate(-12.5 -23.12)" fill="#fff" stroke="#000" stroke-miterlimit="10"/>
  <g>
    <path d="M86,61a94.11,94.11,0,0,0,39-22,79.44,79.44,0,0,0,40,24,77.48,77.48,0,0,0,30.48,1.08c-5.87-10.12-14.72-20.47-28-29.58-12-7-47-22.18-85,1A80.32,80.32,0,0,0,55.12,64.16,93,93,0,0,0,86,61Z" transform="translate(-12.5 -23.12)"/>
    <path d="M203.5,159.5c-9.92-16.56,4-33.44,3-58A81.2,81.2,0,0,0,201.91,78H186.75A169,169,0,0,1,180,126a168.18,168.18,0,0,1-12,30,64.8,64.8,0,0,1-43,24,92.26,92.26,0,0,1-46-23A153.15,153.15,0,0,1,61,98a137,137,0,0,0,40-1,137.72,137.72,0,0,0,49.47-19H49l0-.1-.35,0A84,84,0,0,0,43.5,101.5c-1.77,27.35,12.74,41.78,3,58-10.15,16.9-33.66,14.14-34,21-.5,10.24,51.39,26.57,110,27,61.2.45,115.51-16.56,115-27C237.16,173.66,213.65,176.46,203.5,159.5Z" transform="translate(-12.5 -23.12)"/>
    <rect x="80.5" y="88.88" width="9" height="9" rx="4.5" ry="4.5"/>
    <rect x="132.5" y="88.88" width="9" height="9" rx="4.5" ry="4.5"/>
    <rect x="108.5" y="99.88" width="4" height="11" rx="2" ry="2"/>
    <polygon points="121.31 51.19 112.45 46.45 103.52 51.06 105.29 41.17 98.14 34.1 108.1 32.73 112.61 23.75 117 32.79 126.93 34.31 119.68 41.27 121.31 51.19"/>
  </g>
</svg>
